<svg width="18" height="18" viewBox="0 0 18 18" fill="none" xmlns="http://www.w3.org/2000/svg">
<path d="M10.125 0.502441C10.125 0.502441 10.68 2.48994 10.68 4.10244C10.68 5.64744 9.6675 6.90369 8.11875 6.90369C6.57 6.90369 5.4 5.65119 5.4 4.10244L5.41875 3.83244C3.91125 5.63619 3 7.96119 3 10.4999C3 13.8149 5.685 16.4999 9 16.4999C12.315 16.4999 15 13.8149 15 10.4999C15 6.45369 13.0537 2.84619 10.125 0.502441V0.502441ZM8.7825 14.2499C7.4475 14.2499 6.36375 13.1962 6.36375 11.8949C6.36375 10.6762 7.1475 9.82119 8.475 9.55494C9.8025 9.28869 11.175 8.65119 11.9362 7.62369C12.2287 8.59119 12.3825 9.61119 12.3825 10.6499C12.3825 12.6337 10.77 14.2499 8.7825 14.2499Z" fill="#4F4F4F"/>
</svg>
