<svg width="36" height="41" viewBox="0 0 36 41" fill="none" xmlns="http://www.w3.org/2000/svg">
<g clip-path="url(#clip0)">
<path d="M21.8237 39.5961C21.8965 40.3436 20.9475 40.7222 20.4858 40.1299L8.03701 24.1617C7.61847 23.6249 8.07404 22.853 8.74632 22.9599L19.812 24.7202C20.1492 24.7738 20.4076 25.0484 20.4406 25.3882L21.8237 39.5961Z" fill="#212121" stroke="white" stroke-width="0.5"/>
<path d="M28.7023 9.43364C28.77 9.84698 28.4388 10.2256 27.9936 10.2256H22.6333C22.2523 10.2256 21.9134 9.92661 21.808 9.50921C21.5506 8.48935 21.0181 7.63709 20.22 7.04125C19.4226 6.4459 18.3777 6.1196 17.1165 6.1196C15.216 6.1196 13.7274 6.84862 12.7222 8.2011C11.7249 9.54298 11.2227 11.4718 11.2227 13.8447C11.2227 16.3479 11.7407 18.279 12.7422 19.5896C13.7518 20.9109 15.2284 21.5697 17.0642 21.5697C18.2663 21.5697 19.2812 21.2871 20.0777 20.7551C20.8758 20.222 21.4392 19.4488 21.7525 18.4958C21.8808 18.1056 22.2104 17.8358 22.5732 17.8383L28.0062 17.8772C28.4511 17.8803 28.7685 18.254 28.6906 18.6506C27.8633 22.863 24.0187 27.4393 16.9074 27.4393C13.2792 27.4393 10.1204 26.2382 7.86874 23.9524C5.61749 21.6669 4.25 18.2733 4.25 13.8447C4.25 9.39799 5.65562 6.00435 7.9266 3.72309C10.1984 1.44096 13.3581 0.25 16.9074 0.25C20.0481 0.25 22.7561 1.08386 24.7957 2.64132C26.8328 4.19686 28.22 6.48668 28.7023 9.43364Z" fill="#464646" stroke="white" stroke-width="0.5"/>
</g>
<defs>
<clipPath id="clip0">
<rect width="36" height="41" fill="white"/>
</clipPath>
</defs>
</svg>
